<?xml version="1.0" encoding="UTF-8"?>
<svg id="Layer_1" data-name="Layer 1" xmlns="http://www.w3.org/2000/svg" viewBox="0 0 158.95 158.95">
  <defs>
    <style>
      .cls-1 {
        fill: #ea5151;
      }
    </style>
  </defs>
  <path class="cls-1" d="M79.47,8.26c39.33,0,71.21,31.88,71.21,71.21s-31.88,71.21-71.21,71.21S8.26,118.8,8.26,79.47,40.15,8.26,79.47,8.26m0-8.26C35.65,0,0,35.65,0,79.47s35.65,79.47,79.47,79.47,79.48-35.65,79.48-79.47S123.3,0,79.47,0h0Z"/>
  <path class="cls-1" d="M88.38,57.84v12.72h17.57l-2.79,18.42h-14.78v44.5h-20.03v-44.5h-16.14v-18.42h16.14v-14.67c0-1.11,.05-2.19,.16-3.23,1.29-13.08,10.5-20.94,24.01-20.94,5.56,0,10.24,.46,14.16,1.31,.02,0,.03,0,.05,.01v15.67h-9.22c-5.04,0-9.13,4.09-9.13,9.14Z"/>
</svg>