<?xml version="1.0" encoding="UTF-8"?>
<svg id="Layer_1" data-name="Layer 1" xmlns="http://www.w3.org/2000/svg" viewBox="0 0 169.46 169.46">
  <defs>
    <style>
      .cls-1 {
        fill: #ea5151;
      }
    </style>
  </defs>
  <g>
    <path class="cls-1" d="M84.73,60.59c-13.31,0-24.14,10.83-24.14,24.14s10.83,24.14,24.14,24.14,24.14-10.83,24.14-24.14-10.83-24.14-24.14-24.14Zm0,39.81c-8.64,0-15.68-7.03-15.68-15.67s7.03-15.67,15.68-15.67,15.67,7.03,15.67,15.67-7.03,15.67-15.67,15.67Z"/>
    <path class="cls-1" d="M109.89,53.94c-3.1,0-5.62,2.52-5.62,5.62s2.52,5.63,5.62,5.63,5.63-2.52,5.63-5.63-2.52-5.62-5.63-5.62Z"/>
    <path class="cls-1" d="M105.04,37.73h-40.63c-14.77,0-26.79,12.02-26.79,26.79v40.42c0,14.77,12.02,26.79,26.79,26.79h40.63c14.77,0,26.79-12.02,26.79-26.79v-40.42c0-14.77-12.02-26.79-26.79-26.79Zm18.32,67.21c0,10.1-8.22,18.32-18.32,18.32h-40.63c-10.1,0-18.33-8.22-18.33-18.32v-40.42c0-10.1,8.22-18.32,18.33-18.32h40.63c10.1,0,18.32,8.22,18.32,18.32v40.42Z"/>
  </g>
  <path class="cls-1" d="M84.73,8.81c41.93,0,75.92,33.99,75.92,75.92s-33.99,75.92-75.92,75.92S8.81,126.66,8.81,84.73,42.8,8.81,84.73,8.81m0-8.81C38.01,0,0,38.01,0,84.73s38.01,84.73,84.73,84.73,84.73-38.01,84.73-84.73S131.45,0,84.73,0h0Z"/>
</svg>