<?xml version="1.0" standalone="no"?>
<!DOCTYPE svg PUBLIC "-//W3C//DTD SVG 20010904//EN"
 "http://www.w3.org/TR/2001/REC-SVG-20010904/DTD/svg10.dtd">
<svg version="1.0" xmlns="http://www.w3.org/2000/svg"
 width="672.000000pt" height="672.000000pt" viewBox="0 0 672.000000 672.000000"
 preserveAspectRatio="xMidYMid meet">
<metadata>
Created by potrace 1.14, written by Peter Selinger 2001-2017
</metadata>
<g transform="translate(0.000000,672.000000) scale(0.100000,-0.100000)"
fill="#000000" stroke="none">
<path d="M3219 6716 c-2 -2 -42 -6 -89 -10 -47 -4 -112 -11 -145 -16 -33 -5
-78 -12 -100 -15 -22 -4 -98 -20 -170 -36 -71 -17 -138 -32 -148 -34 -23 -5
-195 -63 -222 -75 -11 -5 -55 -23 -98 -39 -247 -97 -527 -264 -751 -449 -98
-82 -264 -244 -310 -304 l-28 -38 23 -20 c13 -10 28 -19 33 -20 5 0 34 28 65
62 99 109 246 247 304 287 12 8 24 18 27 21 26 32 278 196 410 267 188 101
502 220 680 258 8 2 38 9 65 15 28 6 59 13 70 15 34 5 169 26 195 31 112 18
520 26 658 12 56 -5 62 -4 63 13 4 60 2 67 -23 68 -118 4 -506 9 -509 7z"/>
<path d="M2955 6460 c-22 -4 -59 -10 -82 -14 -207 -28 -514 -154 -943 -386
-58 -31 -141 -76 -185 -100 -185 -99 -339 -234 -473 -415 -28 -38 -55 -74 -60
-80 -27 -33 -146 -257 -186 -350 -26 -60 -52 -119 -56 -130 -9 -20 -40 -112
-44 -130 -2 -5 -11 -36 -20 -68 -10 -32 -16 -60 -14 -62 1 -2 19 -6 38 -10
l35 -6 29 93 c122 390 325 728 556 927 98 83 132 107 255 172 39 21 95 51 125
68 231 129 687 340 770 356 8 2 42 10 76 19 130 34 245 45 419 41 94 -2 181
-6 195 -8 14 -3 45 -7 70 -11 25 -4 56 -9 70 -11 14 -3 40 -7 58 -10 73 -12
303 -75 397 -110 221 -80 417 -196 534 -316 47 -48 105 -125 113 -151 2 -6 19
-3 42 9 l37 19 -51 77 c-132 198 -398 364 -766 477 -94 29 -229 62 -304 75
-19 3 -46 8 -60 10 -14 3 -43 8 -65 11 -22 3 -53 7 -70 10 -51 9 -398 12 -440
4z"/>
<path d="M3009 6026 c-2 -2 -40 -7 -84 -11 -83 -7 -110 -10 -160 -18 -16 -3
-50 -9 -75 -12 -104 -17 -307 -67 -435 -110 -373 -122 -671 -359 -884 -702
-153 -247 -258 -527 -327 -868 -2 -11 -6 -31 -9 -45 -2 -14 -7 -41 -10 -60 -3
-19 -7 -46 -10 -60 -3 -14 -7 -51 -10 -83 -4 -32 -8 -66 -10 -76 -16 -85 -23
-497 -8 -511 4 -4 22 -6 39 -3 l31 5 1 161 c1 89 4 187 7 217 2 30 7 82 10
115 5 60 24 193 31 230 3 11 7 36 9 55 14 110 127 506 155 545 4 6 11 21 15
35 27 89 148 303 241 428 263 350 591 534 1144 641 201 38 288 46 535 46 279
0 360 -9 648 -70 42 -9 199 -60 287 -92 138 -52 379 -172 388 -195 2 -4 8 -8
14 -8 9 0 49 -29 111 -80 70 -57 297 -306 297 -325 0 -3 7 -13 15 -21 22 -22
137 -199 175 -269 99 -181 177 -360 227 -520 14 -44 28 -87 31 -95 3 -8 6 -19
7 -25 2 -5 10 -37 19 -70 18 -71 45 -196 52 -245 9 -64 12 -65 80 -45 11 3 1
70 -31 210 -3 11 -11 49 -19 85 -8 36 -22 84 -30 108 -8 23 -15 43 -14 45 3 5
-48 151 -87 247 -42 104 -121 268 -165 345 -13 22 -28 49 -34 60 -106 192
-364 496 -522 617 -212 161 -604 324 -909 377 -33 6 -69 13 -80 15 -19 3 -46
7 -165 22 -51 7 -485 15 -491 10z"/>
<path d="M3028 5815 c-2 -2 -41 -6 -88 -9 -47 -3 -116 -13 -155 -21 -38 -9
-79 -18 -89 -20 -123 -27 -529 -204 -713 -311 -142 -82 -324 -293 -454 -524
-170 -304 -308 -749 -333 -1080 -4 -42 -8 -87 -11 -100 -3 -14 -10 -52 -16
-85 -11 -63 -16 -90 -19 -90 -1 0 -4 -11 -6 -25 -8 -45 -45 -133 -72 -174 -24
-35 -26 -46 -18 -73 5 -18 14 -33 21 -33 15 0 56 46 82 91 23 41 65 149 58
149 -3 0 1 15 9 34 8 18 17 53 20 77 3 24 10 69 16 99 10 62 19 131 25 205 2
28 14 95 25 150 12 55 23 111 26 125 35 171 146 470 241 649 42 78 139 239
153 251 3 3 29 34 58 70 55 69 142 151 208 197 99 68 498 249 669 304 45 15
42 14 110 28 28 6 61 13 75 16 70 15 319 23 400 12 19 -3 62 -8 95 -12 131
-16 350 -70 447 -111 86 -35 287 -152 318 -184 3 -3 39 -32 80 -65 189 -151
449 -446 658 -747 56 -82 147 -214 203 -294 85 -122 189 -311 189 -342 0 -5 6
-22 14 -38 8 -16 42 -99 77 -184 136 -336 240 -505 331 -539 26 -10 28 -8 37
27 9 31 8 38 -7 46 -63 33 -161 192 -247 401 -21 50 -43 104 -50 120 -8 17
-32 77 -55 135 -67 170 -135 297 -223 422 -45 64 -111 160 -147 213 -106 158
-289 398 -380 499 -231 257 -386 392 -592 515 -185 111 -423 182 -725 216 -54
7 -241 14 -245 10z"/>
<path d="M2899 5486 c-2 -2 -32 -7 -66 -10 -210 -21 -453 -95 -588 -179 -188
-117 -337 -258 -447 -422 -116 -173 -244 -480 -274 -655 -3 -14 -7 -33 -10
-42 -3 -9 -7 -27 -9 -40 -3 -13 -9 -45 -15 -73 -9 -50 -17 -99 -25 -171 -8
-68 -17 -139 -20 -155 -2 -9 -6 -38 -9 -65 -6 -41 -32 -170 -51 -249 -34 -139
-90 -259 -145 -309 -32 -29 -45 -34 -76 -31 -29 3 -41 -2 -60 -22 -13 -14 -24
-27 -24 -29 0 -2 12 -10 28 -18 30 -15 93 -15 134 2 55 23 158 157 158 206 0
9 5 16 10 16 6 0 9 3 8 8 -1 4 6 30 15 58 10 28 20 59 22 70 3 10 11 46 20 79
8 33 17 74 20 90 2 17 7 41 9 55 7 37 13 79 35 245 61 450 167 758 349 1014
261 367 630 542 1147 545 301 2 457 -31 690 -144 198 -96 330 -193 516 -379
161 -162 258 -280 400 -489 72 -105 101 -159 140 -260 27 -70 54 -136 59 -147
5 -11 37 -83 71 -160 185 -425 368 -708 501 -776 70 -36 269 -119 284 -119 17
0 37 47 30 67 -3 7 -11 13 -18 13 -7 0 -74 27 -148 60 -168 75 -202 105 -312
274 -55 86 -203 370 -260 501 -14 33 -34 78 -43 100 -10 22 -21 49 -25 60 -5
11 -17 40 -28 65 -10 25 -36 89 -56 142 -21 53 -44 102 -52 109 -8 6 -14 16
-14 21 0 5 -18 33 -40 63 -22 30 -40 56 -40 59 0 10 -153 211 -228 299 -245
291 -506 494 -777 606 -44 19 -84 34 -90 35 -5 1 -14 4 -20 8 -13 8 -221 58
-265 64 -45 6 -406 14 -411 10z"/>
<path d="M3057 5184 c-1 -1 -36 -5 -77 -8 -398 -37 -686 -151 -884 -350 -123
-124 -210 -272 -275 -473 -34 -103 -79 -287 -96 -393 -3 -19 -8 -48 -12 -65
-3 -16 -6 -39 -7 -50 -4 -33 -18 -139 -21 -156 -2 -9 -6 -40 -10 -70 -3 -30
-8 -65 -10 -79 -2 -14 -7 -50 -10 -80 -3 -30 -8 -66 -10 -80 -2 -14 -7 -45
-10 -70 -12 -86 -64 -278 -94 -345 -83 -183 -189 -250 -322 -204 l-54 18 -23
-25 c-27 -31 -22 -41 35 -66 115 -51 242 -20 340 84 60 63 141 244 168 375 13
63 44 254 50 309 4 32 8 71 11 87 2 15 6 39 8 55 3 15 7 52 11 83 3 31 7 65 9
75 2 11 7 40 10 66 4 26 16 96 27 155 11 59 22 117 24 128 22 136 117 389 188
500 57 90 148 189 231 251 134 101 376 193 576 220 19 3 46 7 60 9 119 22 292
22 455 0 123 -17 326 -100 459 -189 85 -56 234 -195 303 -281 85 -106 197
-291 232 -385 15 -38 238 -489 251 -505 4 -5 27 -46 50 -90 131 -243 304 -518
434 -690 83 -111 230 -255 291 -285 42 -21 64 -25 135 -25 147 1 265 21 295
51 19 20 20 60 0 68 -10 3 -20 -5 -30 -25 -15 -29 -42 -31 -31 -3 5 12 -1 14
-32 8 -20 -4 -44 -8 -53 -9 -75 -14 -193 -16 -222 -4 -168 68 -438 435 -765
1039 -65 121 -207 402 -221 440 -27 68 -120 251 -158 308 -71 109 -130 182
-233 291 -44 46 -143 127 -206 169 -58 39 -213 121 -238 127 -6 1 -22 7 -36
12 -36 15 -169 51 -210 57 -101 14 -294 27 -303 20z"/>
<path d="M3060 4898 c-184 -28 -359 -71 -411 -99 -13 -7 -26 -12 -29 -12 -21
2 -155 -66 -234 -119 -76 -51 -209 -185 -258 -258 -47 -72 -109 -194 -124
-245 -2 -5 -10 -29 -18 -52 -21 -58 -54 -188 -61 -243 -3 -25 -8 -52 -10 -60
-4 -16 -16 -136 -20 -210 -2 -25 -4 -142 -5 -261 -3 -176 -7 -236 -25 -326
-56 -275 -191 -431 -416 -477 -65 -13 -190 -14 -247 -1 -28 6 -33 4 -42 -20
-17 -46 -13 -53 37 -61 312 -47 557 73 679 331 70 150 90 271 94 565 2 204 5
274 14 360 3 25 8 68 11 95 3 28 15 88 26 135 82 357 241 578 519 723 257 135
672 201 895 143 338 -88 629 -404 803 -876 54 -145 107 -283 122 -315 5 -11
19 -42 31 -70 75 -173 195 -398 294 -550 168 -259 314 -394 500 -464 33 -13
69 -27 80 -31 83 -35 301 -93 395 -105 48 -7 170 -9 175 -3 2 2 0 19 -4 38 -7
35 -7 35 -62 36 -115 3 -234 29 -419 90 -209 70 -268 103 -375 208 -100 99
-135 142 -212 256 -155 232 -337 612 -454 949 -40 117 -137 310 -205 412 -138
205 -292 348 -469 436 -63 31 -143 60 -192 69 -15 3 -46 9 -67 14 -49 11 -243
10 -316 -2z"/>
<path d="M3005 4620 c-74 -11 -115 -19 -160 -30 -22 -6 -50 -13 -63 -16 -96
-20 -279 -111 -361 -179 -62 -51 -161 -159 -161 -175 0 -5 -4 -10 -8 -10 -12
0 -90 -159 -107 -217 -35 -118 -47 -203 -49 -348 -1 -82 1 -169 6 -193 4 -24
10 -64 14 -90 14 -105 79 -277 150 -395 119 -198 318 -390 557 -536 175 -108
442 -228 668 -299 94 -30 301 -87 349 -96 14 -2 68 -14 120 -24 52 -11 121
-23 153 -27 l57 -7 0 31 c0 17 0 34 1 39 0 4 -30 12 -68 19 -113 19 -137 24
-153 28 -8 2 -27 6 -43 9 -15 3 -35 7 -45 10 -9 3 -28 7 -42 10 -162 29 -510
149 -721 249 -138 65 -379 211 -379 229 0 4 -6 8 -12 8 -12 1 -29 15 -148 124
-39 35 -134 143 -173 197 -106 143 -186 348 -204 522 -9 85 -8 282 1 337 4 25
9 60 12 78 15 108 102 285 186 377 138 151 316 239 578 286 91 17 351 19 415
4 155 -36 350 -187 469 -364 74 -111 161 -314 191 -446 4 -18 29 -136 41 -192
10 -48 58 -172 96 -248 84 -166 216 -342 387 -514 130 -131 187 -181 316 -278
55 -41 108 -81 118 -89 9 -8 20 -14 23 -14 3 0 31 -17 62 -38 129 -87 338
-185 426 -200 66 -11 145 -5 172 12 l24 17 -27 27 c-22 22 -33 27 -50 21 -80
-28 -312 64 -538 214 -380 252 -697 586 -848 894 -63 129 -80 185 -121 400
-10 51 -87 266 -116 324 -144 287 -395 512 -620 555 -69 13 -292 16 -375 4z"/>
<path d="M3153 4254 c2 -36 3 -37 57 -51 108 -28 235 -104 341 -205 190 -183
336 -412 529 -833 200 -435 522 -778 943 -1000 88 -46 225 -109 287 -130 3 -1
12 -4 20 -8 13 -5 124 -37 183 -54 17 -4 21 1 31 49 5 23 2 27 -27 33 -42 9
-202 62 -247 82 -292 129 -497 263 -685 447 -140 138 -274 307 -321 406 -4 8
-11 17 -14 20 -9 6 -87 161 -126 250 -96 218 -238 465 -353 615 -44 57 -189
208 -241 250 -94 76 -284 165 -353 165 -22 0 -25 -4 -24 -36z"/>
<path d="M2693 4127 c-181 -254 -273 -496 -278 -731 -3 -176 35 -308 130 -452
128 -192 312 -320 670 -464 11 -5 81 -30 155 -55 74 -26 189 -67 255 -90 500
-178 617 -217 626 -208 5 5 11 22 12 37 2 32 12 27 -228 111 -88 30 -182 64
-210 74 -27 11 -104 38 -170 61 -141 49 -376 133 -455 162 -30 11 -100 42
-156 69 -376 183 -562 440 -548 759 3 83 5 99 18 168 24 122 122 336 222 479
35 51 64 95 64 98 0 5 -50 55 -54 55 -1 0 -24 -33 -53 -73z"/>
<path d="M3138 3964 c-3 -3 -18 -7 -33 -10 -56 -10 -141 -59 -190 -108 -183
-184 -178 -540 12 -797 117 -160 290 -282 625 -443 188 -90 200 -95 318 -139
207 -77 447 -147 503 -147 13 0 39 -11 58 -25 19 -13 49 -32 67 -42 17 -9 32
-20 32 -25 0 -4 4 -8 9 -8 5 0 45 -22 88 -48 43 -27 103 -62 133 -78 30 -16
57 -31 60 -35 9 -10 235 -117 316 -149 180 -72 305 -100 430 -97 75 3 100 8
147 31 54 26 97 66 97 90 0 6 -16 16 -36 22 -29 9 -37 9 -41 -3 -3 -7 -24 -23
-47 -35 -48 -25 -168 -33 -256 -16 -104 19 -292 88 -438 160 -121 60 -442 244
-485 278 -7 5 -39 30 -72 56 -93 72 -266 250 -340 349 -16 22 -35 46 -42 53
-7 7 -13 17 -13 22 0 5 -6 15 -13 22 -25 25 -126 213 -163 303 -20 49 -53 146
-74 215 -46 152 -51 164 -102 267 -74 150 -190 265 -315 313 -54 21 -221 38
-235 24z m230 -109 c34 -15 62 -31 62 -35 0 -3 11 -13 25 -20 22 -12 43 -35
123 -135 23 -29 93 -191 117 -270 32 -109 72 -229 90 -270 110 -256 240 -449
433 -641 28 -29 52 -55 52 -58 0 -2 -15 0 -32 5 -18 6 -40 12 -48 13 -49 12
-265 87 -379 133 -138 55 -448 209 -524 260 -23 16 -49 32 -57 35 -31 12 -163
132 -213 193 -44 54 -71 99 -119 197 -19 41 -30 110 -33 208 -3 122 15 191 71
276 88 132 275 179 432 109z"/>
<path d="M3164 3542 c-45 -7 -72 -131 -50 -232 25 -119 155 -271 333 -389 71
-47 264 -153 270 -148 4 5 -56 194 -84 262 -39 93 -102 214 -146 280 -50 73
-141 166 -186 189 -45 24 -112 42 -137 38z m96 -107 c38 -20 103 -83 148 -145
42 -58 156 -285 168 -333 l7 -28 -59 37 c-159 100 -280 224 -322 329 -14 35
-22 117 -15 146 6 21 23 19 73 -6z"/>
<path d="M2087 2867 c-53 -31 -95 -86 -154 -202 -104 -205 -195 -290 -370
-345 -73 -24 -243 -35 -308 -20 -34 8 -35 7 -45 -28 -5 -20 -8 -38 -6 -40 13
-12 92 -20 180 -18 180 5 333 61 442 164 82 76 111 116 178 249 61 120 117
183 161 183 34 0 88 -57 126 -132 40 -79 69 -171 126 -393 l45 -180 -6 -135
c-10 -243 -57 -435 -155 -628 -71 -141 -197 -303 -295 -381 l-35 -28 19 -31
c11 -18 25 -32 32 -32 6 0 53 42 103 93 203 207 329 457 390 772 19 100 28
391 13 445 -8 27 -37 146 -43 170 -6 26 -42 152 -65 225 -78 248 -211 364
-333 292z"/>
<path d="M2135 2558 c-16 -6 -35 -16 -42 -22 -70 -64 -105 -103 -163 -181
-147 -199 -271 -279 -440 -284 -60 -2 -158 21 -211 49 -11 7 -20 1 -32 -20
-23 -38 -22 -45 11 -60 95 -44 229 -60 329 -40 59 13 158 55 181 77 7 7 17 13
21 13 17 0 145 134 209 222 103 138 174 196 207 168 30 -25 48 -143 49 -325 0
-203 -32 -378 -121 -645 -26 -79 -92 -210 -105 -210 -4 0 -8 -4 -8 -10 0 -5
-48 -82 -106 -170 l-107 -160 23 -20 c13 -11 29 -20 35 -20 13 0 256 362 293
435 36 73 113 308 128 395 3 14 9 41 14 60 33 133 44 362 26 545 -19 177 -81
243 -191 203z"/>
<path d="M2049 2231 c-24 -16 -84 -70 -133 -121 -126 -130 -222 -199 -340
-242 -35 -13 -72 -17 -137 -15 -53 2 -89 -1 -89 -7 0 -5 -7 -17 -15 -26 -28
-30 6 -45 110 -47 182 -4 312 64 516 269 124 124 154 147 171 130 31 -31 2
-306 -48 -467 -18 -57 -84 -217 -93 -225 -3 -3 -15 -23 -26 -45 -33 -66 -131
-190 -202 -254 -36 -34 -70 -61 -74 -61 -5 0 1 -16 12 -35 20 -33 22 -34 47
-21 36 19 141 123 195 193 163 215 268 508 281 790 8 187 -60 259 -175 184z"/>
<path d="M2743 2211 c-66 -41 -81 -93 -88 -313 -3 -84 -7 -209 -10 -278 -5
-140 -20 -211 -66 -303 -60 -119 -142 -219 -284 -342 -54 -47 -280 -193 -343
-221 -1 0 5 -17 13 -38 l15 -36 59 29 c75 38 252 157 316 213 184 161 299 323
344 488 21 75 26 138 36 440 9 274 19 304 96 294 91 -11 637 -217 924 -348
216 -100 605 -307 613 -328 2 -4 8 -8 14 -8 15 0 235 -152 333 -231 165 -133
324 -310 401 -446 l30 -52 32 16 c37 18 38 24 15 66 -104 184 -290 381 -529
558 -102 76 -356 239 -372 239 -6 0 -12 3 -14 8 -3 8 -19 16 -213 118 -77 40
-212 104 -300 144 -88 39 -169 75 -180 80 -18 8 -97 40 -150 60 -11 4 -31 12
-45 18 -43 19 -259 98 -389 141 -154 52 -214 59 -258 32z"/>
<path d="M4496 2069 c-12 -29 -12 -35 3 -46 9 -7 20 -13 24 -13 34 -1 310
-148 517 -275 135 -83 371 -114 570 -75 93 19 89 16 78 59 l-10 38 -66 -14
c-116 -25 -302 -22 -399 6 -2 1 -4 1 -5 2 -2 0 -10 2 -19 4 -28 5 -123 55
-219 116 -89 56 -388 208 -438 224 -19 5 -25 1 -36 -26z"/>
<path d="M2990 1907 c-66 -32 -134 -144 -146 -242 -1 -11 -3 -21 -4 -22 -5 -7
-18 -88 -25 -168 -9 -84 -34 -191 -58 -245 -11 -25 -21 -47 -21 -50 -1 -3 -15
-30 -33 -61 -76 -135 -237 -301 -400 -416 -86 -60 -92 -66 -82 -86 26 -51 35
-49 124 15 259 190 416 379 501 604 24 65 39 140 49 244 4 35 8 67 10 70 2 3
6 30 10 60 8 65 38 149 66 184 54 68 134 72 292 12 139 -52 524 -260 742 -401
90 -57 257 -179 305 -221 84 -74 149 -135 191 -179 51 -54 179 -211 179 -219
0 -3 8 -15 18 -26 17 -21 30 -41 91 -147 18 -32 35 -59 36 -61 5 -6 65 28 65
37 0 17 -145 256 -170 281 -3 3 -30 37 -61 75 -192 240 -494 476 -889 695 -52
29 -117 65 -145 80 -126 70 -298 152 -360 172 -138 44 -214 48 -285 15z"/>
<path d="M4311 1839 c-15 -44 -14 -48 12 -58 66 -27 307 -246 749 -682 l219
-217 25 25 c13 13 24 27 24 31 0 16 -706 704 -775 756 -27 21 -19 20 66 -8 79
-26 420 -130 454 -139 11 -3 79 -21 150 -40 123 -33 189 -48 280 -64 47 -8
143 -8 152 0 3 3 -3 21 -14 39 -14 25 -26 33 -49 34 -55 2 -138 15 -199 31
-59 15 -74 18 -115 27 -11 3 -71 19 -132 37 -62 17 -117 32 -123 34 -5 1 -17
5 -25 8 -8 3 -70 22 -137 41 -67 20 -217 68 -335 106 -117 39 -214 70 -214 70
-1 0 -7 -14 -13 -31z"/>
<path d="M1748 1716 c-46 -24 -117 -56 -158 -71 -99 -37 -107 -45 -90 -85 10
-24 17 -29 34 -24 44 13 193 76 235 100 24 13 47 22 51 19 23 -15 -46 -167
-133 -292 -42 -62 -47 -75 -37 -89 35 -41 46 -37 98 35 156 214 200 397 106
439 -19 9 -36 4 -106 -32z"/>
<path d="M1595 1496 l-86 -86 25 -25 c14 -14 28 -25 31 -25 10 0 165 157 165
167 0 4 -11 18 -25 31 l-24 24 -86 -86z"/>
<path d="M3195 1502 c-68 -43 -111 -119 -261 -462 -150 -345 -347 -550 -531
-554 -51 -1 -54 -2 -64 -34 -6 -18 -8 -36 -5 -40 13 -12 132 -4 181 13 142 50
282 187 396 390 53 95 69 127 149 310 118 265 141 302 201 311 45 8 123 -23
380 -150 301 -148 494 -308 709 -586 19 -25 37 -47 41 -50 12 -10 150 -223
185 -285 19 -36 39 -67 44 -70 10 -6 70 14 70 24 0 14 -25 61 -32 61 -5 0 -8
5 -8 10 0 6 -24 50 -54 98 -211 338 -471 613 -731 772 -66 41 -369 190 -445
220 -19 7 -40 17 -46 21 -6 5 -42 11 -80 14 -58 5 -74 3 -99 -13z"/>
<path d="M4993 1493 c-30 -12 -8 -48 85 -141 105 -104 131 -133 236 -259 38
-46 71 -83 74 -83 2 0 17 9 33 21 l29 21 -19 26 c-11 15 -30 39 -43 54 -13 14
-32 37 -42 50 -11 12 -46 53 -79 91 -32 37 -56 67 -53 67 4 0 35 -10 69 -21
87 -30 123 -38 195 -45 l63 -7 -2 42 c-3 40 -4 41 -40 41 -50 0 -182 39 -333
100 -122 48 -146 54 -173 43z"/>
<path d="M3352 1126 c-117 -38 -198 -141 -247 -311 -54 -190 -183 -375 -337
-485 -27 -18 -48 -35 -48 -38 0 -9 35 -62 41 -62 14 0 98 67 162 129 119 116
192 237 259 430 42 121 68 170 114 213 87 80 227 72 375 -23 118 -76 436 -422
668 -727 l24 -32 28 21 c35 25 36 33 7 68 -13 16 -36 45 -53 66 -16 21 -35 43
-40 49 -6 6 -38 45 -70 86 -109 136 -284 331 -374 415 -35 33 -72 67 -81 76
-30 28 -135 89 -191 110 -69 27 -180 33 -237 15z"/>
<path d="M3410 722 c-29 -5 -75 -35 -108 -72 -25 -26 -82 -136 -82 -157 0 -6
-14 -38 -30 -70 -36 -71 -112 -153 -197 -214 l-62 -45 21 -32 20 -32 30 18
c58 33 162 127 209 189 27 35 60 97 79 145 59 155 106 202 185 187 145 -27
366 -222 538 -475 l49 -72 29 15 c16 8 31 18 34 22 4 7 -100 166 -130 197 -5
6 -23 29 -40 50 -51 65 -180 190 -248 238 -112 80 -224 121 -297 108z"/>
<path d="M3490 315 c-25 -7 -66 -24 -92 -39 -56 -33 -170 -144 -166 -163 2 -8
14 -21 28 -30 25 -15 27 -14 90 49 78 77 145 112 216 111 81 0 135 -28 237
-122 64 -60 146 -121 163 -121 17 0 36 34 28 53 -3 9 -31 37 -62 64 -31 26
-63 55 -72 63 -123 120 -252 167 -370 135z"/>
<path d="M3462 128 c-22 -11 -53 -31 -68 -44 l-26 -25 33 -24 c29 -22 35 -23
49 -10 28 25 85 44 121 39 19 -3 56 -18 82 -35 l48 -29 24 28 c14 15 25 29 25
32 0 8 -92 66 -120 75 -49 16 -126 12 -168 -7z"/>
</g>
</svg>
