<?xml version="1.0" encoding="UTF-8"?>
<svg id="Layer_1" data-name="Layer 1" xmlns="http://www.w3.org/2000/svg" viewBox="0 0 207.99 64.46">
  <defs>
    <style>
      .cls-1 {
        fill: none;
        stroke: red;
        stroke-miterlimit: 10;
        stroke-width: .5px;
      }
    </style>
  </defs>
  <g>
    <path class="cls-1" d="M181.65,33.28c-.26-.36,0,0-2.38,.85,2.38-.85,2.12-1.21,2.38-.85s-.34,1.74-1.27,2.83c.93-1.09,1.53-2.47,1.27-2.83Z"/>
    <path class="cls-1" d="M180.66,34.21l-1.13,1.13,1.13-1.13Z"/>
    <path class="cls-1" d="M183.48,32.93s1.26-5.07-1.14-2.38c-2.4,2.7-4.14,1.8-4.14,1.8,0,0,1.74,.9,4.14-1.8,2.4-2.7,1.14,2.38,1.14,2.38,0,0-.67,2.88-2.84,4.38,2.17-1.5,2.84-4.38,2.84-4.38Z"/>
    <path class="cls-1" d="M191.85,44.26s.89-1.1,2.15,.04c-1.26-1.14-2.15-.04-2.15-.04Z"/>
    <path class="cls-1" d="M194.36,43.18c-1.91-1.68-3.47,.74-3.47,.74,0,0,1.57-2.42,3.47-.74,1.91,1.68,.95,.83,.95,.83,0,0,.96,.85-.95-.83Z"/>
    <path class="cls-1" d="M192.33,39.97h-.16c-.16-.01-.83,.01-1.25,1.39-.42,1.38-2.02,2.24-2.02,2.24,0,0,1.6-.86,2.02-2.24,.42-1.38,1.09-1.4,1.25-1.4h.16s1.9,.23,4.14,3.8c-2.24-3.57-4.14-3.8-4.14-3.8Z"/>
    <path class="cls-1" d="M194.01,37.9c-1.41-1.01-3.18-1.23-3.84,1.24-.66,2.47-2.7,3.61-2.7,3.61,0,0,2.04-1.14,2.7-3.61,.66-2.47,2.43-2.25,3.84-1.24,1.41,1.01,4.45,4.94,4.45,4.94,0,0-3.04-3.93-4.45-4.94Z"/>
    <path class="cls-1" d="M193.94,35.9c-3.84-1.79-3.17-2.01-5.08,2.15-1.91,4.16-4.02,3.46-4.02,3.46,0,0,2.11,.7,4.02-3.46,1.91-4.16,1.24-3.94,5.08-2.15,3.84,1.79,6.23,6.58,6.23,6.58,0,0-2.39-4.79-6.23-6.58Z"/>
    <path class="cls-1" d="M192.99,33.16c-3.75-2.02-4.48-1.54-4.79,1.82-.32,3.36-4.11,5.47-4.11,5.47,0,0,3.79-2.11,4.11-5.47,.32-3.36,1.05-3.84,4.79-1.82,3.75,2.02,6.69,3.9,8.58,7.56-1.89-3.66-4.84-5.54-8.58-7.56Z"/>
    <path class="cls-1" d="M188.6,30.13c-1.66-.54-1.31,.58-1.46,4.03-.15,3.45-4.76,5.57-4.76,5.57,0,0,4.61-2.12,4.76-5.57,.16-3.45-.2-4.57,1.46-4.03,1.66,.54,12.47,4.12,15.04,9.41-2.57-5.29-13.38-8.87-15.04-9.41Z"/>
    <path class="cls-1" d="M196.5,20.64c-.93-5.1-3.89-6.13-4.51-6.4-.61-.27-9.19-1.05-8.47,7.17s13.45,9.72,13.45,9.72c0,0-12.72-1.5-13.45-9.72s7.86-7.44,8.47-7.17c.61,.27,3.58,1.3,4.51,6.4s9.15,10.43,10.38,9.21c-1.23,1.22-9.45-4.11-10.38-9.21Z"/>
    <path class="cls-1" d="M206.02,31.17s-6.63-1.2-9.58-8.07c-2.96-6.87-6.22-6.77-6.22-6.77,0,0,3.26-.1,6.22,6.77,2.96,6.87,9.58,8.07,9.58,8.07Z"/>
    <path class="cls-1" d="M190.85,27.86l6.7,2.38-6.7-2.38c-9.64-3.42-3.12-11-3.12-11,0,0-6.51,7.58,3.12,11Z"/>
    <path class="cls-1" d="M202.64,34.87c.68,.45,2.57,2.79,2.57,2.79,0,0-1.88-2.34-2.57-2.79-.68-.45,2.2,1.08,3.37,.95-1.16,.13-4.05-1.4-3.37-.95Z"/>
    <path class="cls-1" d="M198.01,32.4c1.04,.43,6.53,6.05,6.53,6.05,0,0-5.49-5.61-6.53-6.05s7.97,2.76,8.75,2.24c-.78,.52-9.8-2.67-8.75-2.24Z"/>
    <path class="cls-1" d="M202.72,32.71c-1.67-1.13-3.62-1.9-3.62-1.9,0,0,1.95,.77,3.62,1.9,1.67,1.13,4.25,.4,4.25,.4,0,0-2.58,.73-4.25-.4Z"/>
    <path class="cls-1" d="M199.17,29.3s-.19-.12-.5-.36c-.03-.03-.07-.06-.11-.08-.03-.03-.06-.05-.1-.08-1.15-.93-3.39-3.09-4.27-6.43-1.22-4.58-4.09-4.29-5.29-3.23-1.2,1.05-1.77,4.51,2.03,6.79,3.13,1.88,6.06,2.67,7.01,2.89,.07,.02,.12,.03,.17,.04,.09,.02,.14,.03,.14,.03,0,0-.05,0-.14-.03-.05-.01-.1-.02-.17-.04-.94-.22-3.88-1.01-7.01-2.89-3.8-2.28-3.23-5.74-2.03-6.79,1.2-1.05,4.08-1.35,5.29,3.23,.89,3.34,3.13,5.5,4.27,6.43,.03,.03,.07,.05,.1,.08,.04,.03,.07,.06,.11,.08,.31,.24,.5,.36,.5,.36,7.47,4.81,8.42,2.25,8.42,2.25,0,0-.95,2.56-8.42-2.25Z"/>
    <path class="cls-1" d="M193.55,25.66c-4.55-2.36-3.23-4.37-3.23-4.37,2,.07,3.23,4.37,3.23,4.37Z"/>
    <path class="cls-1" d="M194.2,.36c-11.36-1.08-17,6.54-17,6.54,0,0,5.63-7.62,17-6.54Z"/>
    <path class="cls-1" d="M180.86,5.35c4.06-2.18,5.92-3.23,8.74-3.41s9.1,1.09,10.69,4.32c-1.59-3.23-7.87-4.51-10.69-4.32s-4.68,1.24-8.74,3.41c-4.06,2.18-5.37,7.9-5.37,7.9,0,0,1.31-5.72,5.37-7.9Z"/>
    <path class="cls-1" d="M184.55,5.75c9.35-2.89,15.35,1.78,15.35,1.78,0,0,4.78,3.43,6.01,11.26-1.23-7.83-6.01-11.26-6.01-11.26,0,0-6-4.67-15.35-1.78-9.35,2.89-8.45,15.76-8.45,15.76,0,0-.91-12.87,8.45-15.76Z"/>
    <path class="cls-1" d="M177.55,18.84c.32-3.5,2.36-9,5.55-10.52,3.19-1.51,5.37-2.85,10.43-1.53,5.06,1.32,8.89,8.36,9.85,9.52,.96,1.16,2.27,6.42,3.7,6.71-1.43-.29-2.73-5.55-3.7-6.71-.96-1.16-4.79-8.2-9.85-9.52-5.06-1.32-7.24,.02-10.43,1.53-3.19,1.51-5.23,7.01-5.55,10.52-.32,3.5-1.21,3.79-1.21,3.79,0,0,.89-.29,1.21-3.79Z"/>
    <path class="cls-1" d="M179.28,19.02c.76-6.65,3.99-9.9,8.45-10.5,4.46-.6,8.69,.57,13.19,7.68,0,0,2.59,7.1,4.43,7.9l1.84,.8-1.84-.8c-1.84-.8-4.43-7.9-4.43-7.9-4.5-7.11-8.73-8.28-13.19-7.68-4.46,.6-7.69,3.85-8.45,10.5-.76,6.65-2.6,5.18-2.6,5.18,0,0,1.84,1.47,2.6-5.18Z"/>
    <path class="cls-1" d="M180.53,21.91c.77-6.42,1.33-10.7,8.44-11.45,7.11-.75,9.5,6.27,9.5,6.27,0,0,4.8,10.2,7.15,10.06,2.35-.15,1.88-.4,1.88-.4,0,0,.47,.26-1.88,.4-2.35,.15-7.15-10.06-7.15-10.06,0,0-2.39-7.01-9.5-6.27-7.11,.75-7.67,5.03-8.44,11.45-.77,6.42-3.63,4.35-3.63,4.35,0,0,2.86,2.07,3.63-4.35Z"/>
    <path class="cls-1" d="M182.12,22.46c-.15-6.93,2.48-9.63,7.96-10.21,5.47-.58,7.55,6.06,7.55,6.06,0,0,2.6,7.72,5.86,9.05,3.26,1.33,4.44,1.01,4.44,1.01,0,0-1.18,.31-4.44-1.01-3.26-1.33-5.86-9.05-5.86-9.05,0,0-2.07-6.64-7.55-6.06-5.47,.58-8.11,3.28-7.96,10.21,.15,6.93-5.11,5.44-5.11,5.44,0,0,5.26,1.49,5.11-5.44Z"/>
    <path class="cls-1" d="M182.28,27.13c1.42-3.18,2.55-.33,2.55-.33,.38,.67,1.05,3.62,1.05,3.62,.29,5.61-3.34,8.14-3.34,8.14,0,0,3.62-2.54,3.34-8.14,0,0-.67-2.94-1.05-3.62,0,0-1.13-2.85-2.55,.33-1.42,3.18-4.94,2.34-4.94,2.34,0,0,3.51,.84,4.94-2.34Z"/>
    <path class="cls-1" d="M182.27,29.14c2.19-3.13,2.2-.11,2.2-.11,0,0,.14,.84,.05,2.09s-.77,3.66-1.17,4.36c-.41,.7-1.82,2.79-1.82,2.79,0,0,1.42-2.09,1.82-2.79,.41-.7,1.08-3.11,1.17-4.36s-.05-2.09-.05-2.09c0,0,0-3.01-2.2,.11-2.19,3.13-4.68,1.48-4.68,1.48,0,0,2.5,1.65,4.68-1.48Z"/>
  </g>
  <g>
    <path d="M8.05,26.88H1.12v-4.5H20.05v4.5h-6.88v26.97h-5.12V26.88Z"/>
    <path d="M23.87,22.38h8.95c6.16,0,9.12,2.52,9.12,7.91v1.03c0,3.64-1.39,5.75-4.45,6.74v.13c3.1,.72,4.49,3.01,4.49,7.51v3.78c0,1.66,.09,3.06,.63,4.36h-5.21c-.36-.94-.54-1.62-.54-4.36v-4.14c0-3.42-1.26-4.67-4.81-4.67h-3.06v13.17h-5.12V22.38Zm8.23,13.85c3.28,0,4.72-1.35,4.72-4.27v-1.03c0-2.83-1.21-4.05-4.05-4.05h-3.78v9.35h3.1Z"/>
    <path d="M46.66,45.35V22.38h5.12v23.29c0,2.79,1.44,4.14,4.09,4.14s4.14-1.35,4.14-4.14V22.38h4.94v22.97c0,5.66-3.19,8.95-9.17,8.95s-9.12-3.33-9.12-8.95Z"/>
    <path d="M70.13,22.38h16.63v4.5h-11.51v8.77h9.31v4.5h-9.31v9.22h11.51v4.5h-16.63V22.38Z"/>
    <path d="M98.63,45.4v-14.56c0-5.71,3.28-8.9,9.04-8.9s9.04,3.19,9.04,8.9v2.25h-4.85v-2.43c0-2.83-1.53-4.36-4.09-4.36s-4,1.53-4,4.36v14.92c0,2.83,1.53,4.36,4,4.36s4.09-1.53,4.09-4.36v-3.33h4.85v3.15c0,5.71-3.24,8.9-9.04,8.9s-9.04-3.19-9.04-8.9Z"/>
    <path d="M121.11,22.38h8.95c6.16,0,9.12,2.52,9.12,7.91v1.03c0,3.64-1.39,5.75-4.45,6.74v.13c3.1,.72,4.5,3.01,4.5,7.51v3.78c0,1.66,.09,3.06,.63,4.36h-5.21c-.36-.94-.54-1.62-.54-4.36v-4.14c0-3.42-1.26-4.67-4.81-4.67h-3.06v13.17h-5.12V22.38Zm8.23,13.85c3.28,0,4.72-1.35,4.72-4.27v-1.03c0-2.83-1.21-4.05-4.05-4.05h-3.78v9.35h3.1Z"/>
    <path d="M144.22,22.38h5.12v31.47h-5.12V22.38Z"/>
    <path d="M154.74,22.38h7.28l5.26,23.42,5.21-23.42h7.33v31.47h-4.9V29.08l-5.71,24.77h-4.27l-5.71-24.77v24.77h-4.5V22.38Z"/>
    <path d="M185.17,22.38h16.63v4.5h-11.51v8.77h9.31v4.5h-9.31v9.22h11.51v4.5h-16.63V22.38Z"/>
  </g>
  <g>
    <path d="M7.6,13.68H3.64l-.63,2.66H1.63L4.68,3.76h1.96l3.09,12.58h-1.51l-.63-2.66Zm-.32-1.28l-1.67-7.01-1.65,7.01h3.33Z"/>
    <path d="M22.64,10.14v6.2h-1.4v-5.97c0-1.29-.45-1.98-1.55-1.98-1.26,0-1.98,.92-1.98,2.52v5.43h-1.4v-5.97c0-1.33-.49-1.98-1.55-1.98-1.28,0-2,.92-2,2.52v5.43h-1.4V7.35h1.22l.02,1.6c.41-1.13,1.33-1.78,2.61-1.78s2.05,.59,2.35,1.73c.41-1.1,1.33-1.73,2.59-1.73,1.64,0,2.48,1.02,2.48,2.97Z"/>
    <path d="M31.19,10.46v1.62h-5.21v1.29c0,1.24,.68,1.96,1.92,1.96s1.92-.74,1.92-1.89h1.37c-.07,1.96-1.26,3.07-3.31,3.07s-3.31-1.19-3.31-3.29v-2.77c0-2.1,1.19-3.29,3.31-3.29s3.31,1.19,3.31,3.29Zm-1.38,.52v-.68c0-1.28-.67-1.94-1.92-1.94s-1.91,.7-1.91,1.94v.68h3.83Z"/>
    <path d="M37.63,7.3v1.37c-.23-.07-.47-.11-.74-.11-1.55,0-2.32,1.01-2.32,3.06v4.73h-1.4V7.35h1.22l.02,1.78c.38-1.33,1.2-1.96,2.44-1.96,.31,0,.54,.02,.77,.13Z"/>
    <path d="M39.23,7.35h1.4v8.99h-1.4V7.35Zm.02-3.67h1.4v2.07h-1.4V3.68Z"/>
    <path d="M42.66,13.26v-2.8c0-2.1,1.19-3.29,3.27-3.29s3.16,1.2,3.2,3.2v.07h-1.35v-.13c0-1.24-.58-1.92-1.85-1.92-1.2,0-1.87,.7-1.87,1.92v3.07c0,1.24,.61,1.92,1.87,1.92s1.85-.68,1.85-1.92v-.34h1.35v.22c0,2.05-1.03,3.27-3.2,3.27s-3.27-1.17-3.27-3.27Z"/>
    <path d="M56.02,16.34c-.11-.22-.16-.79-.18-1.58-.43,1.13-1.38,1.76-2.75,1.76-1.6,0-2.55-.9-2.55-2.37s.68-2.25,2.71-2.75c2.12-.54,2.43-.74,2.43-1.46-.02-1.02-.61-1.58-1.69-1.58-1.2,0-1.8,.68-1.8,1.64h-1.31c0-1.71,1.15-2.82,3.15-2.82,2.1,0,3.06,1.11,3.06,3.04v3.67c0,1.15,.07,1.96,.23,2.46h-1.29Zm-.34-3.52v-1.2c-.27,.27-.86,.49-2.05,.81-1.22,.32-1.69,.74-1.69,1.62,0,.83,.5,1.29,1.51,1.29,1.35,0,2.23-.83,2.23-2.52Z"/>
    <path d="M65.82,10.14v6.2h-1.4v-5.97c0-1.35-.5-1.98-1.6-1.98-1.35,0-2.1,.92-2.1,2.52v5.43h-1.4V7.35h1.22l.02,1.62c.41-1.15,1.37-1.8,2.7-1.8,1.69,0,2.57,1.02,2.57,2.97Z"/>
    <path d="M71.36,3.76h2.1l2.66,10.12,2.64-10.12h2.14v12.58h-1.42V5.73l-2.82,10.6h-1.17l-2.84-10.6v10.6h-1.29V3.76Z"/>
    <path d="M89.65,7.35v8.99h-1.22l-.02-1.58c-.43,1.13-1.38,1.76-2.7,1.76-1.69,0-2.57-1.02-2.57-2.97V7.35h1.4v5.97c0,1.35,.5,1.98,1.6,1.98,1.35,0,2.1-.92,2.1-2.52V7.35h1.4Z"/>
    <path d="M91.5,13.95v-.32h1.35v.31c0,.93,.63,1.42,1.8,1.42s1.8-.45,1.8-1.51c0-.97-.92-1.17-2.1-1.42-1.38-.31-2.7-.81-2.7-2.62,0-1.64,1.15-2.62,3.02-2.62s3,.95,3,2.52v.16h-1.33v-.16c0-.88-.61-1.35-1.67-1.35-.97,0-1.67,.45-1.67,1.42s.9,1.19,2.12,1.47c1.33,.31,2.71,.74,2.71,2.57,0,1.71-1.13,2.71-3.11,2.71s-3.22-.97-3.22-2.57Z"/>
    <path d="M106.03,10.46v1.62h-5.21v1.29c0,1.24,.68,1.96,1.92,1.96s1.92-.74,1.92-1.89h1.37c-.07,1.96-1.26,3.07-3.31,3.07s-3.31-1.19-3.31-3.29v-2.77c0-2.1,1.19-3.29,3.31-3.29s3.31,1.19,3.31,3.29Zm-1.38,.52v-.68c0-1.28-.67-1.94-1.92-1.94s-1.91,.7-1.91,1.94v.68h3.83Z"/>
    <path d="M114.43,7.35v8.99h-1.22l-.02-1.58c-.43,1.13-1.38,1.76-2.7,1.76-1.69,0-2.57-1.02-2.57-2.97V7.35h1.4v5.97c0,1.35,.5,1.98,1.6,1.98,1.35,0,2.1-.92,2.1-2.52V7.35h1.4Z"/>
    <path d="M127.98,10.14v6.2h-1.4v-5.97c0-1.29-.45-1.98-1.55-1.98-1.26,0-1.98,.92-1.98,2.52v5.43h-1.4v-5.97c0-1.33-.49-1.98-1.55-1.98-1.28,0-2,.92-2,2.52v5.43h-1.4V7.35h1.22l.02,1.6c.41-1.13,1.33-1.78,2.61-1.78s2.05,.59,2.35,1.73c.41-1.1,1.33-1.73,2.59-1.73,1.64,0,2.48,1.02,2.48,2.97Z"/>
    <path d="M133.22,13.21v-2.75c0-2.1,1.19-3.29,3.31-3.29s3.29,1.19,3.29,3.29v2.75c0,2.12-1.19,3.31-3.29,3.31s-3.31-1.19-3.31-3.31Zm5.19,.14v-3.02c0-1.24-.67-1.94-1.89-1.94s-1.91,.7-1.91,1.94v3.02c0,1.24,.68,1.94,1.91,1.94s1.89-.7,1.89-1.94Z"/>
    <path d="M144.08,6.22v1.13h2.25v1.17h-2.25v7.82h-1.4v-7.82h-1.49v-1.17h1.49v-1.26c0-1.71,.79-2.52,2.44-2.52,.43,0,.79,.05,1.2,.23v1.22c-.38-.16-.7-.2-1.01-.2-.9,0-1.24,.38-1.24,1.38Z"/>
  </g>
</svg>