<?xml version="1.0" encoding="UTF-8"?>
<svg id="Layer_1" data-name="Layer 1" xmlns="http://www.w3.org/2000/svg" viewBox="0 0 154.31 154.31">
  <defs>
    <style>
      .cls-1 {
        fill: #ea5151;
      }
    </style>
  </defs>
  <path class="cls-1" d="M124.43,53.16c-3.35,1.49-6.95,2.49-10.73,2.94,3.86-2.31,6.83-5.98,8.22-10.35-3.61,2.14-7.61,3.7-11.87,4.53-3.41-3.63-8.27-5.9-13.65-5.9-10.32,0-18.69,8.37-18.69,18.7,0,1.46,.17,2.88,.48,4.26-15.54-.78-29.32-8.23-38.54-19.54-1.61,2.77-2.53,5.98-2.53,9.4,0,6.49,3.31,12.21,8.32,15.57-3.07-.1-5.95-.94-8.47-2.34v.24c0,9.06,6.45,16.62,15,18.34-1.57,.42-3.22,.65-4.92,.65-1.21,0-2.38-.11-3.52-.33,2.38,7.43,9.28,12.84,17.47,12.98-6.4,5.02-14.46,8.01-23.22,8.01-1.51,0-3-.09-4.46-.26,8.28,5.31,18.1,8.4,28.66,8.4,34.4,0,53.2-28.49,53.2-53.2,0-.8-.02-1.61-.06-2.42,3.65-2.64,6.82-5.93,9.32-9.67h0Z"/>
  <path class="cls-1" d="M77.15,8.02c38.18,0,69.13,30.95,69.13,69.13s-30.95,69.13-69.13,69.13S8.02,115.34,8.02,77.16,38.98,8.02,77.15,8.02m0-8.02C34.61,0,0,34.61,0,77.16s34.61,77.16,77.15,77.16,77.16-34.61,77.16-77.16S119.7,0,77.15,0h0Z"/>
</svg>